<svg width="1600" height="1000" viewBox="0 0 1600 1000" fill="none" xmlns="http://www.w3.org/2000/svg">
  <rect width="1600" height="1000" rx="48" fill="#F7F4EF"/>
  <rect x="40" y="40" width="1520" height="920" rx="42" fill="url(#bg)"/>
  <rect x="100" y="120" width="1400" height="760" rx="36" fill="#FFFDF9" stroke="#D9E2F6" stroke-width="4"/>
  <rect x="150" y="180" width="1300" height="640" rx="32" fill="#F6F8FF"/>
  <path d="M270 220H1330" stroke="#D5DDF6" stroke-width="12" stroke-linecap="round" stroke-dasharray="12 18"/>
  <path d="M270 500H1330" stroke="#D5DDF6" stroke-width="12" stroke-linecap="round" stroke-dasharray="12 18"/>
  <path d="M800 220V780" stroke="#D5DDF6" stroke-width="12" stroke-linecap="round" stroke-dasharray="12 18"/>
  <rect x="190" y="250" width="240" height="120" rx="28" fill="url(#stall1)"/>
  <rect x="480" y="250" width="260" height="120" rx="28" fill="url(#stall2)"/>
  <rect x="860" y="240" width="300" height="140" rx="32" fill="url(#stall3)" stroke="#4F46E5" stroke-width="6"/>
  <rect x="1240" y="250" width="190" height="120" rx="28" fill="url(#stall4)"/>
  <rect x="240" y="610" width="260" height="120" rx="28" fill="url(#stall5)"/>
  <rect x="575" y="610" width="250" height="120" rx="28" fill="url(#stall6)"/>
  <rect x="930" y="590" width="320" height="150" rx="36" fill="url(#booth)"/>
  <rect x="1260" y="610" width="150" height="120" rx="28" fill="#EEF2FF"/>
  <circle cx="1010" cy="310" r="120" fill="#4F46E5" fill-opacity="0.08"/>
  <circle cx="1010" cy="310" r="88" fill="#4F46E5" fill-opacity="0.12"/>
  <circle cx="1010" cy="310" r="58" fill="#4F46E5" fill-opacity="0.18"/>
  <circle cx="400" cy="820" r="30" fill="#4F46E5"/>
  <circle cx="400" cy="820" r="54" fill="#4F46E5" fill-opacity="0.12"/>
  <circle cx="400" cy="820" r="78" fill="#4F46E5" fill-opacity="0.06"/>
  <circle cx="1170" cy="560" r="18" fill="#16A34A"/>
  <circle cx="1210" cy="560" r="18" fill="#FF7A59"/>
  <circle cx="1250" cy="560" r="18" fill="#7C3AED"/>
  <text x="220" y="320" fill="#111827" font-family="Inter, Arial, sans-serif" font-size="30" font-weight="700">Stall A</text>
  <text x="515" y="320" fill="#111827" font-family="Inter, Arial, sans-serif" font-size="30" font-weight="700">Stall B</text>
  <text x="905" y="320" fill="#FFFFFF" font-family="Inter, Arial, sans-serif" font-size="34" font-weight="800">Vendor Stall</text>
  <text x="1270" y="320" fill="#111827" font-family="Inter, Arial, sans-serif" font-size="26" font-weight="700">Stall D</text>
  <text x="280" y="680" fill="#111827" font-family="Inter, Arial, sans-serif" font-size="30" font-weight="700">Stall E</text>
  <text x="620" y="680" fill="#111827" font-family="Inter, Arial, sans-serif" font-size="30" font-weight="700">Help Desk</text>
  <text x="970" y="675" fill="#FFFFFF" font-family="Inter, Arial, sans-serif" font-size="36" font-weight="800">Featured Live Booth</text>
  <text x="1280" y="680" fill="#111827" font-family="Inter, Arial, sans-serif" font-size="24" font-weight="700">Lounge</text>
  <text x="165" y="155" fill="#6B7280" font-family="Inter, Arial, sans-serif" font-size="28" font-weight="600">Entrance Lobby</text>
  <defs>
    <linearGradient id="bg" x1="80" y1="90" x2="1510" y2="960" gradientUnits="userSpaceOnUse">
      <stop stop-color="#FDFBF7"/>
      <stop offset="1" stop-color="#EEF2FF"/>
    </linearGradient>
    <linearGradient id="stall1" x1="190" y1="250" x2="430" y2="370" gradientUnits="userSpaceOnUse">
      <stop stop-color="#FEF3C7"/>
      <stop offset="1" stop-color="#FCE7F3"/>
    </linearGradient>
    <linearGradient id="stall2" x1="480" y1="250" x2="740" y2="370" gradientUnits="userSpaceOnUse">
      <stop stop-color="#E0E7FF"/>
      <stop offset="1" stop-color="#DBEAFE"/>
    </linearGradient>
    <linearGradient id="stall3" x1="860" y1="240" x2="1160" y2="380" gradientUnits="userSpaceOnUse">
      <stop stop-color="#4F46E5"/>
      <stop offset="1" stop-color="#7C3AED"/>
    </linearGradient>
    <linearGradient id="stall4" x1="1240" y1="250" x2="1430" y2="370" gradientUnits="userSpaceOnUse">
      <stop stop-color="#D1FAE5"/>
      <stop offset="1" stop-color="#DCFCE7"/>
    </linearGradient>
    <linearGradient id="stall5" x1="240" y1="610" x2="500" y2="730" gradientUnits="userSpaceOnUse">
      <stop stop-color="#FDE68A"/>
      <stop offset="1" stop-color="#FED7AA"/>
    </linearGradient>
    <linearGradient id="stall6" x1="575" y1="610" x2="825" y2="730" gradientUnits="userSpaceOnUse">
      <stop stop-color="#E0F2FE"/>
      <stop offset="1" stop-color="#E9D5FF"/>
    </linearGradient>
    <linearGradient id="booth" x1="930" y1="590" x2="1250" y2="740" gradientUnits="userSpaceOnUse">
      <stop stop-color="#111827"/>
      <stop offset="1" stop-color="#312E81"/>
    </linearGradient>
  </defs>
</svg>
